<mxfile host="app.diagrams.net" modified="2024-02-01T12:52:03.036Z" agent="Mozilla/5.0 (Windows NT 10.0; Win64; x64) AppleWebKit/537.36 (KHTML, like Gecko) Chrome/120.0.0.0 Safari/537.36" version="23.0.2" etag="MHtn5vG1vcThftrzeOuj" type="github">
  <diagram name="Страница — 1" id="HwvvrFrgrP5XqiT95Wr1">
    <mxGraphModel>
      <root>
        <mxCell id="0" />
        <mxCell id="1" parent="0" />
      </root>
    </mxGraphModel>
  </diagram>
</mxfile>
